<svg xmlns="http://www.w3.org/2000/svg" xmlns:xlink="http://www.w3.org/1999/xlink" width="1200" zoomAndPan="magnify" viewBox="0 0 900 60" height="80" preserveAspectRatio="xMidYMid meet" version="1.0"><defs><clipPath id="22d9aac003"><path d="M 30 0 L 870 0 C 877.957031 0 885.585938 3.160156 891.214844 8.785156 C 896.839844 14.414062 900 22.042969 900 30 C 900 37.957031 896.839844 45.585938 891.214844 51.214844 C 885.585938 56.839844 877.957031 60 870 60 L 30 60 C 22.042969 60 14.414062 56.839844 8.785156 51.214844 C 3.160156 45.585938 0 37.957031 0 30 C 0 22.042969 3.160156 14.414062 8.785156 8.785156 C 14.414062 3.160156 22.042969 0 30 0 Z M 30 0 " clip-rule="nonzero"/></clipPath><clipPath id="62d4ffa6a4"><path d="M 0 0 L 900 0 L 900 60 L 0 60 Z M 0 0 " clip-rule="nonzero"/></clipPath><clipPath id="661912da7a"><path d="M 30 0 L 870 0 C 877.957031 0 885.585938 3.160156 891.214844 8.785156 C 896.839844 14.414062 900 22.042969 900 30 C 900 37.957031 896.839844 45.585938 891.214844 51.214844 C 885.585938 56.839844 877.957031 60 870 60 L 30 60 C 22.042969 60 14.414062 56.839844 8.785156 51.214844 C 3.160156 45.585938 0 37.957031 0 30 C 0 22.042969 3.160156 14.414062 8.785156 8.785156 C 14.414062 3.160156 22.042969 0 30 0 Z M 30 0 " clip-rule="nonzero"/></clipPath><clipPath id="df442e9394"><rect x="0" width="900" y="0" height="60"/></clipPath></defs><g clip-path="url(#22d9aac003)"><g transform="matrix(1, 0, 0, 1, 0, -0.000000000000001479)"><g clip-path="url(#df442e9394)"><g clip-path="url(#62d4ffa6a4)"><g clip-path="url(#661912da7a)"><rect x="-198" width="1296" fill="#ffffff" height="86.4" y="-13.2" fill-opacity="1"/></g></g></g></g></g></svg>