<svg xmlns="http://www.w3.org/2000/svg" xmlns:xlink="http://www.w3.org/1999/xlink" width="400" zoomAndPan="magnify" viewBox="0 0 300 60" height="80" preserveAspectRatio="xMidYMid meet" version="1.0"><defs><clipPath id="f270ddf478"><path d="M 0 0 L 300 0 L 300 59.808594 L 0 59.808594 Z M 0 0 " clip-rule="nonzero"/></clipPath><clipPath id="d9bcc218bd"><path d="M 29.90625 0 L 270.09375 0 C 286.613281 0 300 13.386719 300 29.90625 C 300 46.421875 286.613281 59.808594 270.09375 59.808594 L 29.90625 59.808594 C 13.386719 59.808594 0 46.421875 0 29.90625 C 0 13.386719 13.386719 0 29.90625 0 Z M 29.90625 0 " clip-rule="nonzero"/></clipPath><clipPath id="ed91c7bb9e"><path d="M 0 0 L 300 0 L 300 59.808594 L 0 59.808594 Z M 0 0 " clip-rule="nonzero"/></clipPath><clipPath id="4a36f3fda8"><path d="M 29.90625 0 L 270.09375 0 C 286.613281 0 300 13.386719 300 29.90625 C 300 46.421875 286.613281 59.808594 270.09375 59.808594 L 29.90625 59.808594 C 13.386719 59.808594 0 46.421875 0 29.90625 C 0 13.386719 13.386719 0 29.90625 0 Z M 29.90625 0 " clip-rule="nonzero"/></clipPath><clipPath id="05c45801b7"><rect x="0" width="300" y="0" height="60"/></clipPath></defs><g clip-path="url(#f270ddf478)"><g clip-path="url(#d9bcc218bd)"><g transform="matrix(1, 0, 0, 1, 0, -0.000000000000001479)"><g clip-path="url(#05c45801b7)"><g clip-path="url(#ed91c7bb9e)"><g clip-path="url(#4a36f3fda8)"><path fill="#ffffff" d="M 0 0 L 299.992188 0 L 299.992188 59.808594 L 0 59.808594 Z M 0 0 " fill-opacity="1" fill-rule="nonzero"/></g></g></g></g></g></g></svg>