<svg xmlns="http://www.w3.org/2000/svg" xmlns:xlink="http://www.w3.org/1999/xlink" width="1200" zoomAndPan="magnify" viewBox="0 0 900 60" height="80" preserveAspectRatio="xMidYMid meet" version="1.0"><defs><clipPath id="d95484b6d0"><path d="M 30 0 L 870 0 C 877.957031 0 885.585938 3.160156 891.214844 8.785156 C 896.839844 14.414062 900 22.042969 900 30 C 900 37.957031 896.839844 45.585938 891.214844 51.214844 C 885.585938 56.839844 877.957031 60 870 60 L 30 60 C 22.042969 60 14.414062 56.839844 8.785156 51.214844 C 3.160156 45.585938 0 37.957031 0 30 C 0 22.042969 3.160156 14.414062 8.785156 8.785156 C 14.414062 3.160156 22.042969 0 30 0 Z M 30 0 " clip-rule="nonzero"/></clipPath></defs><g clip-path="url(#d95484b6d0)"><path stroke-linecap="butt" transform="matrix(0.75, 0, 0, 0.75, 0, 0.00000322669)" fill="none" stroke-linejoin="miter" d="M 40.000002 -0.00000430225 L 1160.000048 -0.00000430225 C 1170.609424 -0.00000430225 1180.781299 4.213538 1188.286508 11.713538 C 1195.786508 19.218746 1200.00005 29.390622 1200.00005 39.999997 C 1200.00005 50.609373 1195.786508 60.781248 1188.286508 68.286457 C 1180.781299 75.786457 1170.609424 79.999999 1160.000048 79.999999 L 40.000002 79.999999 C 29.390626 79.999999 19.218751 75.786457 11.713542 68.286457 C 4.213542 60.781248 0 50.609373 0 39.999997 C 0 29.390622 4.213542 19.218746 11.713542 11.713538 C 19.218751 4.213538 29.390626 -0.00000430225 40.000002 -0.00000430225 Z M 40.000002 -0.00000430225 " stroke="#ffffff" stroke-width="20" stroke-opacity="1" stroke-miterlimit="4"/></g></svg>