<svg xmlns="http://www.w3.org/2000/svg" xmlns:xlink="http://www.w3.org/1999/xlink" width="1280" zoomAndPan="magnify" viewBox="0 0 960 74.999997" height="100" preserveAspectRatio="xMidYMid meet" version="1.0"><defs><clipPath id="6ac00a9a3f"><path d="M 37.585938 0 L 922.414062 0 C 932.382812 0 941.941406 3.960938 948.992188 11.007812 C 956.039062 18.058594 960 27.617188 960 37.585938 C 960 47.554688 956.039062 57.117188 948.992188 64.164062 C 941.941406 71.214844 932.382812 75.171875 922.414062 75.171875 L 37.585938 75.171875 C 27.617188 75.171875 18.058594 71.214844 11.007812 64.164062 C 3.960938 57.117188 0 47.554688 0 37.585938 C 0 27.617188 3.960938 18.058594 11.007812 11.007812 C 18.058594 3.960938 27.617188 0 37.585938 0 Z M 37.585938 0 " clip-rule="nonzero"/></clipPath><clipPath id="2d2333f66b"><path d="M 0 0 L 960 0 L 960 75 L 0 75 Z M 0 0 " clip-rule="nonzero"/></clipPath><clipPath id="bdb2ec7f1a"><path d="M 37.585938 0 L 922.414062 0 C 932.382812 0 941.941406 3.960938 948.992188 11.007812 C 956.039062 18.058594 960 27.617188 960 37.585938 C 960 47.554688 956.039062 57.117188 948.992188 64.164062 C 941.941406 71.214844 932.382812 75.171875 922.414062 75.171875 L 37.585938 75.171875 C 27.617188 75.171875 18.058594 71.214844 11.007812 64.164062 C 3.960938 57.117188 0 47.554688 0 37.585938 C 0 27.617188 3.960938 18.058594 11.007812 11.007812 C 18.058594 3.960938 27.617188 0 37.585938 0 Z M 37.585938 0 " clip-rule="nonzero"/></clipPath><clipPath id="f8a4760d97"><rect x="0" width="960" y="0" height="75"/></clipPath></defs><g clip-path="url(#6ac00a9a3f)"><g transform="matrix(1, 0, 0, 1, 0, -0.000000000000001893)"><g clip-path="url(#f8a4760d97)"><g clip-path="url(#2d2333f66b)"><g clip-path="url(#bdb2ec7f1a)"><path fill="#ffffff" d="M 0 0 L 959.992188 0 L 959.992188 75.171875 L 0 75.171875 Z M 0 0 " fill-opacity="1" fill-rule="nonzero"/></g></g></g></g></g></svg>