<svg xmlns="http://www.w3.org/2000/svg" xmlns:xlink="http://www.w3.org/1999/xlink" width="400" zoomAndPan="magnify" viewBox="0 0 300 60" height="80" preserveAspectRatio="xMidYMid meet" version="1.0"><defs><clipPath id="1bec8dfb36"><path d="M 0.0195312 0 L 299.992188 0 L 299.992188 59.808594 L 0.0195312 59.808594 Z M 0.0195312 0 " clip-rule="nonzero"/></clipPath><clipPath id="fcec58f115"><path d="M 29.921875 0 L 270.078125 0 C 286.59375 0 299.980469 13.386719 299.980469 29.902344 C 299.980469 46.414062 286.59375 59.800781 270.078125 59.800781 L 29.921875 59.800781 C 13.40625 59.800781 0.0195312 46.414062 0.0195312 29.902344 C 0.0195312 13.386719 13.40625 0 29.921875 0 Z M 29.921875 0 " clip-rule="nonzero"/></clipPath></defs><g clip-path="url(#1bec8dfb36)"><g clip-path="url(#fcec58f115)"><path stroke-linecap="butt" transform="matrix(0.75, 0, 0, 0.75, 0.0198271, 0.000002)" fill="none" stroke-linejoin="miter" d="M 39.869399 -0.00000266667 L 360.077745 -0.00000266667 C 382.09858 -0.00000266667 399.947539 17.848956 399.947539 39.869791 C 399.947539 61.885417 382.09858 79.734376 360.077745 79.734376 L 39.869399 79.734376 C 17.848565 79.734376 -0.000394513 61.885417 -0.000394513 39.869791 C -0.000394513 17.848956 17.848565 -0.00000266667 39.869399 -0.00000266667 Z M 39.869399 -0.00000266667 " stroke="#ffffff" stroke-width="12" stroke-opacity="1" stroke-miterlimit="4"/></g></g></svg>