<svg xmlns="http://www.w3.org/2000/svg" xmlns:xlink="http://www.w3.org/1999/xlink" width="512" zoomAndPan="magnify" viewBox="0 0 384 383.999986" height="512" preserveAspectRatio="xMidYMid meet" version="1.0"><defs><clipPath id="9a5f77f2d7"><path d="M 192 0 C 85.960938 0 0 85.960938 0 192 C 0 298.039062 85.960938 384 192 384 C 298.039062 384 384 298.039062 384 192 C 384 85.960938 298.039062 0 192 0 Z M 192 0 " clip-rule="nonzero"/></clipPath><clipPath id="288e09d19d"><path d="M 0 0 L 384 0 L 384 384 L 0 384 Z M 0 0 " clip-rule="nonzero"/></clipPath><clipPath id="b2ceede178"><path d="M 192 0 C 85.960938 0 0 85.960938 0 192 C 0 298.039062 85.960938 384 192 384 C 298.039062 384 384 298.039062 384 192 C 384 85.960938 298.039062 0 192 0 Z M 192 0 " clip-rule="nonzero"/></clipPath><clipPath id="efab1a3ee4"><rect x="0" width="384" y="0" height="384"/></clipPath></defs><g clip-path="url(#9a5f77f2d7)"><g><g clip-path="url(#efab1a3ee4)"><g clip-path="url(#288e09d19d)"><g clip-path="url(#b2ceede178)"><rect x="-84.48" width="552.96" fill="#ffffff" height="552.959979" y="-84.479997" fill-opacity="1"/></g></g></g></g><path stroke-linecap="butt" transform="matrix(0.75, 0, 0, 0.75, 0.0000072, 0)" fill="none" stroke-linejoin="miter" d="M 256.000011 0 C 114.614583 0 -0.0000096 114.614592 -0.0000096 256.00002 C -0.0000096 397.385448 114.614583 512.000041 256.000011 512.000041 C 397.385439 512.000041 512.000031 397.385448 512.000031 256.00002 C 512.000031 114.614592 397.385439 0 256.000011 0 Z M 256.000011 0 " stroke="#ffffff" stroke-width="164" stroke-opacity="1" stroke-miterlimit="4"/></g></svg>