<svg xmlns="http://www.w3.org/2000/svg" xmlns:xlink="http://www.w3.org/1999/xlink" width="60" zoomAndPan="magnify" viewBox="0 0 45 44.999999" height="60" preserveAspectRatio="xMidYMid meet" version="1.0"><defs><clipPath id="df801525c2"><path d="M 7.363281 0 L 37.363281 0 L 37.363281 45 L 7.363281 45 Z M 7.363281 0 " clip-rule="nonzero"/></clipPath></defs><g clip-path="url(#df801525c2)"><path fill="#ffffff" d="M 23.042969 44.839844 C 23.042969 44.839844 9.019531 44.996094 7.941406 32.738281 C 7.414062 23.992188 12.492188 21.660156 12.207031 13.269531 C 12.199219 13.03125 12.476562 12.890625 12.664062 13.035156 C 13.550781 13.703125 15.417969 15.363281 16.183594 17.921875 C 16.269531 18.207031 16.683594 18.183594 16.738281 17.890625 C 17.480469 13.96875 20.414062 4.183594 31.539062 0.0898438 C 31.789062 -0.00390625 32.019531 0.273438 31.882812 0.5 C 30.691406 2.515625 27.507812 8.539062 29.605469 12.15625 C 31.113281 14.765625 31.78125 16.53125 32.074219 17.535156 C 32.15625 17.804688 32.535156 17.808594 32.621094 17.539062 L 33.222656 15.632812 C 33.3125 15.34375 33.730469 15.375 33.777344 15.675781 C 34.597656 21.152344 37.589844 26.085938 37.308594 31.8125 C 37.144531 35.25 36.089844 38.757812 33.574219 41.214844 C 30.792969 43.929688 26.816406 44.808594 23.042969 44.839844 Z M 23.042969 44.839844 " fill-opacity="1" fill-rule="nonzero"/></g><path fill="#ffffff" d="M 19.34375 27.976562 C 19.554688 28.148438 19.859375 27.953125 19.796875 27.6875 C 18.367188 21.71875 22.046875 17.46875 23.617188 15.980469 C 23.8125 15.789062 24.140625 15.960938 24.09375 16.230469 C 23.59375 19.160156 24.875 21.910156 27.058594 23.949219 C 28.835938 25.613281 28.824219 27.617188 28.699219 28.535156 C 28.667969 28.761719 28.90625 28.925781 29.109375 28.828125 C 30.425781 28.183594 31.332031 26.992188 31.769531 26.3125 C 31.898438 26.113281 32.199219 26.148438 32.28125 26.375 C 34.070312 31.488281 34.863281 40.589844 23.347656 40.554688 C 11.339844 40.519531 13.261719 31.8125 14.03125 29.5 C 14.5625 27.90625 13.996094 26.75 13.589844 26.1875 C 13.457031 26 13.582031 25.746094 13.808594 25.734375 C 16.003906 25.605469 18.242188 27.105469 19.34375 27.976562 Z M 19.34375 27.976562 " fill-opacity="1" fill-rule="nonzero"/></svg>