<svg xmlns="http://www.w3.org/2000/svg" xmlns:xlink="http://www.w3.org/1999/xlink" width="60" zoomAndPan="magnify" viewBox="0 0 45 44.999999" height="60" preserveAspectRatio="xMidYMid meet" version="1.0"><defs><clipPath id="98027b385c"><path d="M 9.632812 0.1875 L 35.367188 0.1875 L 35.367188 44.816406 L 9.632812 44.816406 Z M 9.632812 0.1875 " clip-rule="nonzero"/></clipPath><clipPath id="0d1ee29f7d"><path d="M 22.5 0.1875 C 28.117188 8.617188 35.367188 22.566406 35.367188 32.15625 C 35.367188 39.140625 29.601562 44.8125 22.5 44.8125 C 15.398438 44.8125 9.632812 39.140625 9.632812 32.15625 C 9.632812 22.566406 24.746094 14.140625 22.5 0.1875 Z M 22.5 0.1875 " clip-rule="nonzero"/></clipPath><clipPath id="e746cd9a6a"><path d="M 0.632812 0.1875 L 26.367188 0.1875 L 26.367188 44.816406 L 0.632812 44.816406 Z M 0.632812 0.1875 " clip-rule="nonzero"/></clipPath><clipPath id="a15c490e3b"><path d="M 13.5 0.1875 C 19.117188 8.617188 26.367188 22.566406 26.367188 32.15625 C 26.367188 39.140625 20.601562 44.8125 13.5 44.8125 C 6.398438 44.8125 0.632812 39.140625 0.632812 32.15625 C 0.632812 22.566406 15.746094 14.140625 13.5 0.1875 Z M 13.5 0.1875 " clip-rule="nonzero"/></clipPath><clipPath id="2e1a0c7cec"><rect x="0" width="27" y="0" height="45"/></clipPath></defs><g clip-path="url(#98027b385c)"><g clip-path="url(#0d1ee29f7d)"><g transform="matrix(1, 0, 0, 1, 9, 0)"><g clip-path="url(#2e1a0c7cec)"><g clip-path="url(#e746cd9a6a)"><g clip-path="url(#a15c490e3b)"><path fill="#ffffff" d="M 0.632812 0.1875 L 26.367188 0.1875 L 26.367188 44.816406 L 0.632812 44.816406 Z M 0.632812 0.1875 " fill-opacity="1" fill-rule="nonzero"/></g></g></g></g></g></g></svg>